<svg id="Layer_1" data-name="Layer 1" xmlns="http://www.w3.org/2000/svg" xmlns:xlink="http://www.w3.org/1999/xlink" viewBox="0 0 131.08 130.89"><defs><style>.cls-1,.cls-2{fill:none;}.cls-2{stroke:#fff;stroke-miterlimit:10;stroke-width:4px;}.cls-3{clip-path:url(#clip-path);}.cls-4{clip-path:url(#clip-path-2);}.cls-5{clip-path:url(#clip-path-3);}</style><clipPath id="clip-path"><path class="cls-1" d="M131.08,40.38l-5.57,57.09L74,130.89,29.58,113.63c1.69,1.31,6.18-1.31,12.32-6.74,8.28-7.31,19.54-19.73,31-34.57s20.61-28.9,25.58-38.75c3.71-7.31,5.1-12.33,3.41-13.62Z"/></clipPath><clipPath id="clip-path-2"><circle class="cls-1" cx="62.85" cy="64.05" r="42.47"/></clipPath><clipPath id="clip-path-3"><path class="cls-1" d="M9.08,28.78,11.33,91.9c-3.7,7.31,10.68,14.73,12.37,16s6.18-1.31,12.32-6.74c8.27-7.31,19.54-19.73,31-34.57S87.64,37.72,92.61,27.86c3.7-7.31,5.1-12.32,3.41-13.62S77.34-1.25,71.2,4.18Z"/></clipPath></defs><g id="orbital"><path class="cls-2" d="M30.21,97.24c-3.71,7.31-5.1,12.32-3.42,13.61s6.19-1.31,12.33-6.74c8.27-7.31,19.53-19.73,31-34.57S90.73,40.65,95.7,30.79c3.71-7.31,5.1-12.32,3.42-13.62s-6.19,1.31-12.33,6.74"/></g><g id="orbital_clipping_mask_right_down" data-name="orbital clipping mask right down"><g class="cls-3"><g class="cls-4"><path class="cls-2" d="M0,46c7.86,0,7.86,8.35,15.71,8.35S23.58,46,31.43,46s7.85,8.35,15.71,8.35S55,46,62.86,46s7.85,8.35,15.71,8.35S86.43,46,94.29,46s7.86,8.3,15.71,8.3"/><path class="cls-2" d="M0,73.89c7.86,0,7.86,8.35,15.71,8.35s7.85-8.35,15.71-8.35,7.85,8.35,15.71,8.35S55,73.89,62.84,73.89s7.86,8.35,15.72,8.35,7.86-8.35,15.72-8.35,7.86,8.35,15.72,8.35"/><path class="cls-2" d="M0,59.85c7.86,0,7.86,8.36,15.71,8.36s7.86-8.36,15.71-8.36,7.86,8.36,15.71,8.36S55,59.85,62.85,59.85s7.85,8.36,15.71,8.36,7.86-8.36,15.72-8.36,7.86,8.36,15.72,8.36"/></g><circle class="cls-2" cx="62.85" cy="64.05" r="46.65"/></g></g><g id="back_clipping_mask" data-name="back clipping mask"><path class="cls-1" d="M85.62,19.13a46.73,46.73,0,0,1,8.52,5.21c.49.38-2.52,5.9-2,6.29l-60,73.57c-.2-.15-.4-.28-.59-.44A83.86,83.86,0,0,1,23.67,96l-5.38,21,18.1,7,78-96.07L107.41,0Z"/></g><g id="orbital_clipping_mask_left_up" data-name="orbital clipping mask left up"><g class="cls-5"><circle class="cls-2" cx="62.85" cy="64.05" r="46.65"/><g class="cls-4"><path class="cls-2" d="M0,46c7.86,0,7.86,8.35,15.71,8.35S23.58,46,31.43,46s7.85,8.35,15.71,8.35S55,46,62.86,46s7.85,8.35,15.71,8.35S86.43,46,94.29,46s7.86,8.3,15.71,8.3"/><path class="cls-2" d="M0,73.89c7.86,0,7.86,8.35,15.71,8.35s7.85-8.35,15.71-8.35,7.85,8.35,15.71,8.35S55,73.89,62.84,73.89s7.86,8.35,15.72,8.35,7.86-8.35,15.72-8.35,7.86,8.35,15.72,8.35"/><path class="cls-2" d="M0,59.85c7.86,0,7.86,8.36,15.71,8.36s7.86-8.36,15.71-8.36,7.86,8.36,15.71,8.36S55,59.85,62.85,59.85s7.85,8.36,15.71,8.36,7.86-8.36,15.72-8.36,7.86,8.36,15.72,8.36"/></g></g></g></svg>